<?xml version="1.0" encoding="UTF-8" standalone="no"?><!-- Generator: Gravit.io --><svg xmlns="http://www.w3.org/2000/svg" xmlns:xlink="http://www.w3.org/1999/xlink" style="isolation:isolate" viewBox="219.5 98.983 61 16.517" width="61pt" height="16.517pt"><g><path d="M 222.172 99.483 L 277.828 99.483 C 279.027 99.483 280 100.456 280 101.655 L 280 112.828 C 280 114.027 279.027 115 277.828 115 L 222.172 115 C 220.973 115 220 114.027 220 112.828 L 220 101.655 C 220 100.456 220.973 99.483 222.172 99.483 Z" style="stroke:none;fill:#BFBBBB;stroke-miterlimit:10;"/><path d="M 222.172 99.483 L 277.828 99.483 C 279.027 99.483 280 100.456 280 101.655 L 280 112.828 C 280 114.027 279.027 115 277.828 115 L 222.172 115 C 220.973 115 220 114.027 220 112.828 L 220 101.655 C 220 100.456 220.973 99.483 222.172 99.483 Z" style="fill:none;stroke:#828282;stroke-width:1;stroke-linecap:square;stroke-miterlimit:2;"/><text transform="matrix(0.517,0,0,0.517,230.862,110.553)" style="font-family:'Sarala';font-weight:400;font-size:18px;font-style:normal;fill:#000000;stroke:none;">Featured</text></g></svg>