<?xml version="1.0" encoding="UTF-8" standalone="no"?><!-- Generator: Gravit.io --><svg xmlns="http://www.w3.org/2000/svg" xmlns:xlink="http://www.w3.org/1999/xlink" style="isolation:isolate" viewBox="18.275 22.16 130.725 100.404"><g><g opacity="0.88"><radialGradient id="_rgradient_1" fx="0.5064505805153875" fy="0.7295615169549869" cx="0.5" cy="0.5" r="0.5" gradientTransform="matrix(200.488,-2.823,1.221,222.092,-27.494,-44.101)" gradientUnits="userSpaceOnUse"><stop offset="21.73913043478261%" stop-opacity="0.82" style="stop-color:rgb(249,224,2)"/><stop offset="56.086956521739125%" stop-opacity="1" style="stop-color:rgb(234,21,14)"/><stop offset="69.56521739130434%" stop-opacity="1" style="stop-color:rgb(244,145,31)"/><stop offset="100%" stop-opacity="1" style="stop-color:rgb(28,64,184)"/></radialGradient><path d=" M 33 87.81 C 33 63.221 51.085 43.257 73.361 43.257 C 95.636 43.257 113.721 63.221 113.721 87.81 L 73.361 87.81 L 33 87.81 Z " fill="url(#_rgradient_1)"/></g><g filter="url(#suraOGrw70XajAWL3gCepaXjlpS16qdT)"><g><mask id="_mask_5kulKHlmmzcPuBIlOjrlYUlXxUdOZWhk" x="-200%" y="-200%" width="400%" height="400%"><rect x="-200%" y="-200%" width="400%" height="400%" style="fill:white;"/><path d=" M 63.724 60.786 Q 60.483 54.842 57.977 60.786" fill="black" stroke="none"/></mask><path d=" M 63.724 60.786 Q 60.483 54.842 57.977 60.786" fill="none" mask="url(#_mask_5kulKHlmmzcPuBIlOjrlYUlXxUdOZWhk)" vector-effect="non-scaling-stroke" stroke-width="4" stroke="rgb(0,0,0)" stroke-opacity="100" stroke-linejoin="miter" stroke-linecap="square" stroke-miterlimit="3"/><path d=" M 63.724 60.786 Q 60.483 54.842 57.977 60.786" fill="none"/><mask id="_mask_7VIkvZBsMzJ40Xu6dt0GDqDcsEIoqNf5" x="-200%" y="-200%" width="400%" height="400%"><rect x="-200%" y="-200%" width="400%" height="400%" style="fill:white;"/><path d=" M 63.724 60.786 L 67.703 61.868 L 70.796 67.812 L 74.332 69.973 L 80.079 84.565" fill="black" stroke="none"/></mask><path d=" M 63.724 60.786 L 67.703 61.868 L 70.796 67.812 L 74.332 69.973 L 80.079 84.565" fill="none" mask="url(#_mask_7VIkvZBsMzJ40Xu6dt0GDqDcsEIoqNf5)" vector-effect="non-scaling-stroke" stroke-width="4" stroke="rgb(0,0,0)" stroke-opacity="100" stroke-linejoin="miter" stroke-linecap="square" stroke-miterlimit="3"/><path d=" M 63.724 60.786 L 67.703 61.868 L 70.796 67.812 L 74.332 69.973 L 80.079 84.565" fill="none"/><mask id="_mask_8Wm0VLlAGGqgJGLZAEwoonxR1LhDITui" x="-200%" y="-200%" width="400%" height="400%"><rect x="-200%" y="-200%" width="400%" height="400%" style="fill:white;"/><path d=" M 57.977 60.786 C 57.661 61.568 56.508 62.321 54.442 62.947 L 51.347 66.19 L 51.347 67.812 Q 48.843 69.793 47.811 72.675 Q 46.781 75.558 46.485 77.539 L 44.275 84.565" fill="black" stroke="none"/></mask><path d=" M 57.977 60.786 C 57.661 61.568 56.508 62.321 54.442 62.947 L 51.347 66.19 L 51.347 67.812 Q 48.843 69.793 47.811 72.675 Q 46.781 75.558 46.485 77.539 L 44.275 84.565" fill="none" mask="url(#_mask_8Wm0VLlAGGqgJGLZAEwoonxR1LhDITui)" vector-effect="non-scaling-stroke" stroke-width="4" stroke="rgb(0,0,0)" stroke-opacity="100" stroke-linejoin="miter" stroke-linecap="square" stroke-miterlimit="3"/><path d=" M 57.977 60.786 C 57.661 61.568 56.508 62.321 54.442 62.947 L 51.347 66.19 L 51.347 67.812 Q 48.843 69.793 47.811 72.675 Q 46.781 75.558 46.485 77.539 L 44.275 84.565" fill="none"/></g><mask id="_mask_QGxT2bwRV9ZpQvilM8zo9CFwiWtwb0tl" x="-200%" y="-200%" width="400%" height="400%"><rect x="-200%" y="-200%" width="400%" height="400%" style="fill:white;"/><path d=" M 56.833 62.169 L 57.717 61.63 L 58.926 62.169 L 59.926 61.63 L 61.018 62.169 Q 61.62 61.916 61.86 61.63 Q 62.099 61.342 63.112 62.169 L 64.158 61.63 L 64.158 60.89" fill="black" stroke="none"/></mask><path d=" M 56.833 62.169 L 57.717 61.63 L 58.926 62.169 L 59.926 61.63 L 61.018 62.169 Q 61.62 61.916 61.86 61.63 Q 62.099 61.342 63.112 62.169 L 64.158 61.63 L 64.158 60.89" fill="none" mask="url(#_mask_QGxT2bwRV9ZpQvilM8zo9CFwiWtwb0tl)" vector-effect="non-scaling-stroke" stroke-width="1" stroke="rgb(0,0,0)" stroke-opacity="100" stroke-linejoin="miter" stroke-linecap="square" stroke-miterlimit="3"/><path d=" M 56.833 62.169 L 57.717 61.63 L 58.926 62.169 L 59.926 61.63 L 61.018 62.169 Q 61.62 61.916 61.86 61.63 Q 62.099 61.342 63.112 62.169 L 64.158 61.63 L 64.158 60.89" fill="none"/><mask id="_mask_QzTyLSgEWoqp7YpLTfDsuwoAZzItPWF9" x="-200%" y="-200%" width="400%" height="400%"><rect x="-200%" y="-200%" width="400%" height="400%" style="fill:white;"/><path d=" M 56.606 65.906 L 55.672 66.589 L 55.484 67.501 L 54.534 68.663 L 53.709 70.349 Q 53.668 70.967 53.52 71.261 Q 53.373 71.556 52.493 72.4" fill="black" stroke="none"/></mask><path d=" M 56.606 65.906 L 55.672 66.589 L 55.484 67.501 L 54.534 68.663 L 53.709 70.349 Q 53.668 70.967 53.52 71.261 Q 53.373 71.556 52.493 72.4" fill="none" mask="url(#_mask_QzTyLSgEWoqp7YpLTfDsuwoAZzItPWF9)" vector-effect="non-scaling-stroke" stroke-width="1" stroke="rgb(0,0,0)" stroke-opacity="100" stroke-linejoin="miter" stroke-linecap="square" stroke-miterlimit="3"/><path d=" M 56.606 65.906 L 55.672 66.589 L 55.484 67.501 L 54.534 68.663 L 53.709 70.349 Q 53.668 70.967 53.52 71.261 Q 53.373 71.556 52.493 72.4" fill="none"/><mask id="_mask_9haOmpNbIUlI7dn4Pud5QpwUU9KaohEh" x="-200%" y="-200%" width="400%" height="400%"><rect x="-200%" y="-200%" width="400%" height="400%" style="fill:white;"/><path d=" M 57.717 66.062 Q 57.474 66.558 56.534 67.269 L 55.985 68.443 L 55.189 69.845 Q 55.241 70.828 55 71.446" fill="black" stroke="none"/></mask><path d=" M 57.717 66.062 Q 57.474 66.558 56.534 67.269 L 55.985 68.443 L 55.189 69.845 Q 55.241 70.828 55 71.446" fill="none" mask="url(#_mask_9haOmpNbIUlI7dn4Pud5QpwUU9KaohEh)" vector-effect="non-scaling-stroke" stroke-width="1" stroke="rgb(0,0,0)" stroke-opacity="100" stroke-linejoin="miter" stroke-linecap="square" stroke-miterlimit="3"/><path d=" M 57.717 66.062 Q 57.474 66.558 56.534 67.269 L 55.985 68.443 L 55.189 69.845 Q 55.241 70.828 55 71.446" fill="none"/></g><defs><filter id="suraOGrw70XajAWL3gCepaXjlpS16qdT" x="-200%" y="-200%" width="400%" height="400%" filterUnits="objectBoundingBox" color-interpolation-filters="sRGB"><feGaussianBlur xmlns="http://www.w3.org/2000/svg" stdDeviation="0" result="_out_5g0P1tmevhbMk6IInGevIoHcxwBMM7ZH"/><feGaussianBlur xmlns="http://www.w3.org/2000/svg" stdDeviation="0" in="_out_5g0P1tmevhbMk6IInGevIoHcxwBMM7ZH"/></filter></defs><text transform="matrix(0.773,0,0,0.773,73.361,52.668)" style="font-family:'Averia Gruesa Libre';font-weight:400;font-size:36px;font-style:normal;fill:#000000;stroke:none;">Show</text><text transform="matrix(0.773,0,0,0.773,99.429,76.878)" style="font-family:'Averia Gruesa Libre';font-weight:400;font-size:36px;font-style:normal;fill:#000000;stroke:none;">Me</text></g></svg>
